<svg width="16" height="16" version="1.1" viewBox="0 0 6.6636 6.6636" xmlns="http://www.w3.org/2000/svg">
 <path d="m1.827 0c-0.23604 0.0061738-0.68281 0.28618-1.112 0.71581-0.52818 0.52878-0.83027 1.0844-0.67433 1.2405l4.6552 4.6601 0.00163-8.134e-4c0.00184 0.00204 0.00292 0.00457 0.00488 0.00651 0.15595 0.15613 0.70985-0.14555 1.238-0.67433s0.83029-1.0843 0.67433-1.2405c-0.00206-0.00194-0.00435-0.00302-0.00651-0.00488l8.16e-4 -8.14e-4 -4.6552-4.6601c-0.029242-0.029276-0.072425-0.042909-0.12689-0.041485zm1.5715 2.0295c0.035438-0.00134 0.063011 0.00669 0.081342 0.023589 0 0 0.040153 0.037221 1.1242 1.1242 0.10834 0.10846-0.12574 0.51815-0.52222 0.9151-0.3965 0.39683-0.80514 0.63068-0.91348 0.52222l-1.1217-1.1225c-0.10834-0.10856 0.12491-0.51825 0.52141-0.9151 0.35244-0.35276 0.67103-0.54141 0.83051-0.54744zm1.4381-2.0295c-0.05447-0.0014247-0.097652 0.012209-0.12689 0.041485-0.00194 0.001942-0.00302 0.0044644-0.00488 0.0065074l-8.139e-4 -8.1342e-4 -1.1461 1.1461c0.099903 0.11156 1.9132 1.9156 1.9132 1.9156l1.1453-1.1469-8.134e-4 -8.134e-4c0.00204-0.00184 0.00457-0.00291 0.00651-0.00488 0.15595-0.15613-0.14534-0.71159-0.67352-1.2405-0.42916-0.42963-0.87592-0.70964-1.112-0.71581zm-3.6449 3.562-1.1437 1.1453c-0.15596 0.15614 0.14615 0.71088 0.67433 1.2397 0.52818 0.52878 1.0821 0.83118 1.238 0.67514l1.1445-1.1453z" fill="#8da5f3"/>
</svg>
