<svg width="16" height="16" version="1.1" viewBox="0 0 16 16" xmlns="http://www.w3.org/2000/svg">
 <path d="m4.5508 0.24219c-0.20923-1.6206e-4 -0.4181 0.0061218-0.52734 0.019531-0.6553 0.080437-1.355 0.36763-1.9023 0.7832-0.89592 0.6802-1.528 1.6534-1.8184 2.793-0.1102 0.43248-0.18318 0.97952-0.18359 1.3926-7.9499e-4 0.78553 0.34795 1.751 0.97656 2.7031 0.25322 0.38353 0.45618 0.62923 1.6543 2.002 0.79279 0.90829 2.886 3.281 4.6738 5.2988 0.32146 0.36282 0.59047 0.65678 0.59766 0.65234 0.042426-0.02622 4.8819-5.5386 5.9316-6.7559 0.78648-0.91206 0.9043-1.0625 1.1562-1.4863 0.38068-0.6402 0.63818-1.2548 0.74414-1.7754 0.10136-0.49802 0.054698-1.3828-0.10742-2.0117-0.2006-0.77822-0.56374-1.4922-1.0547-2.0781-0.57704-0.68865-1.2849-1.1546-2.1523-1.418-0.28534-0.086632-0.50337-0.10263-1.2148-0.09375l-0.57227 0.0058594-0.22852 0.066406c-0.57878 0.16698-1.1546 0.46631-1.5625 0.81055-0.21303 0.17979-0.30961 0.27368-0.63477 0.625-0.16056 0.17349-0.29813 0.31445-0.30664 0.31445-0.0085099 0-0.1209-0.11544-0.25-0.25781-0.32813-0.36187-0.36482-0.3995-0.51953-0.53906-0.61361-0.55356-1.4349-0.94441-2.166-1.0313-0.11442-0.013583-0.32398-0.019369-0.5332-0.019531zm2.4805 3.3301h1.9941v2.248h1.9922v2.2676h-1.9922v2.25h-1.9941v-2.25h-1.9922v-2.2676h1.9922v-1.123-1.125z" fill="#e0e0e0"/>
</svg>
