<svg width="16" height="16" version="1.1" viewBox="0 0 5.12 3.8" xmlns="http://www.w3.org/2000/svg">
 <path d="m1.6399 1.2316-0.73487-0.68196c-0.11881-0.11026-0.30803-0.11026-0.42685 9e-8 -0.11881 0.11026-0.11881 0.28585-1.6e-7 0.39611l0.73047 0.67788c0.11881 0.11026 0.30803 0.11026 0.42685 0 0.12321-0.10617 0.12321-0.28177 0.0043999-0.39203zm0.039603-1.4007 0.51704 0.47983 0.43124-0.40019-0.51704-0.47983c-0.11881-0.11026-0.30803-0.11026-0.42685 1.5e-7 -0.11881 0.11026-0.12321 0.28994-0.0044 0.40019zm-0.64026 1.9581-0.51704-0.47983c-0.11881-0.11026-0.30803-0.11026-0.42685 0-0.11881 0.11026-0.11881 0.28585-1.1e-7 0.39611l0.51704 0.47983c0.11881 0.11026 0.30803 0.11026 0.42685-1e-7 0.11881-0.11026 0.11881-0.28585 0-0.39611zm2.8757 0.27973 0.0044-1.2374c0-0.073505-0.030801-0.14701-0.085809-0.19806l-0.60506-0.5615c-0.11881-0.11026-0.30803-0.11026-0.42685 9e-8l-0.81847 0.75955c-0.11881 0.11026-0.11881 0.28585-1e-7 0.39611 0.11881 0.11026 0.30803 0.11026 0.42685 0l0.47305-0.43899c0.048406-0.044921 0.12761-0.04492 0.17601 0s0.048404 0.11843 0 0.16334c-0.52145 0.48391-0.51704 1.272 0 1.7518 0.048406 0.044921 0.048404 0.11842 0 0.16334-0.048403 0.044919-0.12761 0.044919-0.17601 0-0.40704-0.37774-0.54565-0.91065-0.41143-1.3946-0.11881 0.057171-0.24862 0.075547-0.38063 0.059213l-0.88229 0.81877c-0.079208 0.073505-0.18262 0.11638-0.27723 0.13884l0.62486 0.57987c0.26403 0.24501 0.64026 0.3369 0.9879 0.27973l1.2013 1.1148 1.3752-1.2762zm-2.8361-1.6804 0.58086 0.53904c0.015401-0.095966 0.074807-0.18784 0.14962-0.25727l0.21342-0.19806-0.51704-0.47983c-0.11881-0.11026-0.30803-0.11026-0.42685 1.1e-7 -0.12101 0.10822-0.11881 0.28585-1e-7 0.39611z" fill="#fc7f7f" stroke-width="1.103"/>
</svg>
