<svg width="16" height="16" version="1.1" viewBox="0 0 5.12 3.8" xmlns="http://www.w3.org/2000/svg">
 <path d="m1.6404 1.2306-0.73447-0.68142c-0.11874-0.11017-0.30786-0.11017-0.42661 9e-8 -0.11874 0.11017-0.11874 0.28563-1.6e-7 0.39579l0.73007 0.67734c0.11874 0.11017 0.30786 0.11017 0.42661 0 0.12315-0.10609 0.12315-0.28155 0.00439-0.39171zm0.039582-1.3995 0.51676 0.47944 0.43101-0.39987-0.51676-0.47944c-0.11874-0.11017-0.30786-0.11017-0.42661 1.4e-7 -0.11874 0.11017-0.12315 0.2897-0.00439 0.39987zm-0.63991 1.9565-0.51676-0.47944c-0.11874-0.11017-0.30786-0.11017-0.42661 0-0.11874 0.11017-0.11874 0.28563-1.1e-7 0.39579l0.51676 0.47944c0.11874 0.11017 0.30786 0.11017 0.42661-1e-7 0.11874-0.11017 0.11874-0.28563 1e-7 -0.39579zm2.8741 0.2795 0.00439-1.2364c0-0.073446-0.030785-0.1469-0.085762-0.1979l-0.60472-0.56105c-0.11874-0.11017-0.30786-0.11017-0.42661 7e-8l-0.81803 0.75895c-0.11874 0.11017-0.11874 0.28563-1e-7 0.39579 0.11874 0.11017 0.30786 0.11017 0.42661 0l0.47279-0.43864c0.04838-0.044885 0.12754-0.044884 0.17592 0 0.048377 0.044884 0.048377 0.11834 0 0.16321-0.52117 0.48352-0.51676 1.271 0 1.7504 0.04838 0.044885 0.048377 0.11832 0 0.16321-0.048376 0.044883-0.12754 0.044883-0.17592 0-0.40682-0.37743-0.54536-0.90992-0.41121-1.3935-0.11874 0.057125-0.24848 0.075487-0.38043 0.059166l-0.88181 0.81811c-0.079165 0.073446-0.18252 0.11629-0.27708 0.13873l0.62452 0.57941c0.26389 0.24482 0.63991 0.33663 0.98736 0.2795l1.2007 1.1139 1.3744-1.2752zm-2.8345-1.6791 0.58054 0.53861c0.015393-0.095889 0.074766-0.18769 0.14954-0.25706l0.21331-0.1979-0.51676-0.47944c-0.11874-0.11017-0.30786-0.11017-0.42661 1e-7 -0.12094 0.10813-0.11874 0.28563-1e-7 0.39579z" fill="#8da5f3" stroke-width="1.1023"/>
</svg>
