<svg width="16" height="16" fill="none" version="1.1" viewBox="0 0 .48 .48" xmlns="http://www.w3.org/2000/svg">
 <path d="m0.24 5.1105e-4 -0.17309 0.20354c-0.019552 0.023352-0.032454 0.052291-0.036202 0.082135h0.097181c0.009041-6.161e-5 0.017564 0.003991 0.022919 0.010895l0.052789 0.067391 0.066485-0.16747c0.003625-0.009412 0.012499-0.016111 0.022988-0.017353 0.009816-8.1059e-4 0.019367 0.003296 0.02519 0.01083l0.078047 0.095704h0.052995c-0.003747-0.029844-0.016645-0.058783-0.036202-0.082135zm0.20641 0.33787h-0.06621c-0.008234-5.9043e-4 -0.01578-0.004573-0.020647-0.010895l-0.05506-0.067391-0.066485 0.16962c-0.008147 0.018918-0.034768 0.022523-0.048177 0.006524l-0.075707-0.097857h-0.080525c0.019269 0.07971 0.10383 0.14111 0.20641 0.14111 0.10257 0 0.18714-0.0614 0.20641-0.14111z" color="#000000" fill="#fc7f7f" stroke-linecap="round" stroke-linejoin="round" stroke-width="1.1436" style="-inkscape-stroke:none"/>
</svg>
