<svg width="16" height="16" fill="#000000" version="1.1" viewBox="0 0 .3 .3" xmlns="http://www.w3.org/2000/svg">
 <path d="m0.012878 0.13465c-0.055065-0.11586 0.083744-0.19309 0.13731-0.07724 0.053557-0.11586 0.19238-0.038619 0.13732 0.07724-0.002005 0.004212-0.004679 0.008711-0.007184 0.013137h-0.041708l-0.04186-0.068598a0.014424 0.015758 0 0 0-0.025388 0.0028911l-0.03803 0.10384-0.030684-0.033523a0.014428 0.015763 0 0 0-0.010188-0.004613h-0.072416c-0.0025054-0.004428-0.0051793-0.008928-0.0071771-0.013139zm0.21802 0.044647a0.014449 0.015786 0 0 1-0.012008-0.007015l-0.030932-0.05069-0.03596 0.098219a0.014407 0.015741 0 0 1-0.010488 0.009578 0.013951 0.015242 0 0 1-0.002893 3.1759e-4 0.014421 0.015756 0 0 1-0.010195-0.004602l-0.041916-0.045809h-0.046265a0.98441 1.0755 0 0 0 0.10289 0.11779 0.010709 0.0117 0 0 0 0.014354 0 0.99802 1.0904 0 0 0 0.10267-0.11779z" fill="#e0e0e0" stroke-width=".024115"/>
</svg>
